<svg width="375" height="658" viewBox="0 0 375 658" fill="none" xmlns="http://www.w3.org/2000/svg">
<path d="M305.54 220.618L308.765 224.511L303.574 232.945L314.604 241.38L320.443 229.701L332.446 226.003L305.54 220.618Z" fill="#9D3984"/>
<path d="M310.062 158.333L300.33 204.398L327.58 210.237L338.609 158.982L310.062 158.333Z" stroke="#1F1304" stroke-width="1.17" stroke-miterlimit="10"/>
<path d="M305.196 144.384L292.869 210.562L334.392 218.347L348.666 146.979L305.196 144.384Z" stroke="#1F1304" stroke-width="1.17" stroke-miterlimit="10"/>
<path d="M292.869 210.562L294.167 218.347L339.583 227.43L352.559 158.009L348.666 146.979" stroke="#1F1304" stroke-width="1.17" stroke-miterlimit="10"/>
<path d="M352.559 183.961L344.124 169.687L336.339 178.77L342.664 176.999L349.963 189.8L341.789 181.366L333.743 187.205H340.621L348.666 199.532L339.583 192.233L332.446 194.99L338.609 198.234L348.666 214.454C348.666 214.454 366.832 207.318 352.559 183.961Z" fill="#9D3984"/>
<path d="M288.003 202.452L296.995 188.418L308.765 186.232L298.384 194.666L290.598 212.184C290.598 212.184 284.11 216.076 288.003 202.452Z" fill="#9D3984"/>
<path d="M138.092 228.812L133.595 218.114L136.651 197.631L129.099 213.397L115.539 198.319L124.532 213.734L108.072 203.029L119.672 216.407L102.998 208.933L117.765 221.617L101.512 219.632L122.326 227.249L131.889 238.025L138.092 228.812Z" fill="#9D3984"/>
<path d="M100.935 392.491V350.053H179.653" stroke="#1F1304" stroke-width="1.17" stroke-miterlimit="10"/>
<path d="M353.973 392.55H20.9054C9.68272 392.55 0.584961 401.648 0.584961 412.87V615.205C0.584961 626.427 9.68272 635.525 20.9054 635.525H353.973C365.196 635.525 374.293 626.427 374.293 615.205V412.87C374.293 401.648 365.196 392.55 353.973 392.55Z" stroke="#1F1304" stroke-width="1.17" stroke-miterlimit="10"/>
<path d="M165.782 101.492C166.029 124.077 173.198 157.36 213.067 157.36C247.122 157.36 256.497 129.611 258.58 107.597" stroke="#1F1304" stroke-width="1.17" stroke-miterlimit="10" stroke-linecap="round"/>
<path d="M210.472 110.971L220.204 124.596H210.472" stroke="#1F1304" stroke-width="1.17" stroke-miterlimit="10"/>
<path d="M189.061 128.488C197.302 128.488 203.983 126.019 203.983 122.974C203.983 119.928 197.302 117.459 189.061 117.459C180.82 117.459 174.139 119.928 174.139 122.974C174.139 126.019 180.82 128.488 189.061 128.488Z" fill="#9D3984"/>
<path d="M238.045 128.813C246.287 128.813 252.968 126.344 252.968 123.298C252.968 120.252 246.287 117.783 238.045 117.783C229.804 117.783 223.123 120.252 223.123 123.298C223.123 126.344 229.804 128.813 238.045 128.813Z" fill="#9D3984"/>
<path d="M174.463 104.159C174.463 104.159 190.035 122.974 204.308 104.159" stroke="#1F1304" stroke-width="1.17" stroke-miterlimit="10" stroke-linecap="round"/>
<path d="M220.528 104.159C220.528 104.159 233.828 125.893 248.102 107.078" stroke="#1F1304" stroke-width="1.17" stroke-miterlimit="10" stroke-linecap="round"/>
<path d="M208.525 134.976C208.525 134.976 215.662 149.25 220.204 134.976" stroke="#1F1304" stroke-width="1.17" stroke-miterlimit="10" stroke-linecap="round"/>
<path d="M227.989 70.0966C227.989 70.0966 182.573 116.161 154.675 96.6973C126.776 77.2334 185.168 18.1926 227.989 70.0966Z" stroke="#1F1304" stroke-width="1.17" stroke-miterlimit="10" stroke-linecap="round"/>
<path d="M224.285 65.9247C224.285 65.9247 183.871 31.8174 147.538 79.8285" stroke="#1F1304" stroke-width="1.17" stroke-miterlimit="10" stroke-linecap="round"/>
<path d="M147.538 88.2629C181.924 37.0077 227.989 70.0965 227.989 70.0965C227.989 70.0965 272.108 65.5549 274.054 101.239" stroke="#1F1304" stroke-width="1.17" stroke-miterlimit="10" stroke-linecap="round"/>
<path d="M225.718 72.2636C225.718 72.2636 192.487 44.469 151.521 93.9465" stroke="#1F1304" stroke-width="1.17" stroke-miterlimit="10" stroke-linecap="round"/>
<path d="M222.305 75.3778C222.305 75.3778 203.97 54.201 161.48 100.104" stroke="#1F1304" stroke-width="1.17" stroke-miterlimit="10" stroke-linecap="round"/>
<path d="M215.662 79.8285C215.662 79.8285 203.335 68.7989 172.141 101.453" stroke="#1F1304" stroke-width="1.17" stroke-miterlimit="10" stroke-linecap="round"/>
<path d="M216.973 80.1141C216.973 80.1141 244.871 126.542 276.013 99.9414C307.156 73.3406 258.009 45.7732 220.217 61.6622" stroke="#1F1304" stroke-width="1.17" stroke-miterlimit="10" stroke-linecap="round"/>
<path d="M223.123 64.4844C223.123 64.4844 273.541 51.2813 284.83 88.2629" stroke="#1F1304" stroke-width="1.17" stroke-miterlimit="10" stroke-linecap="round"/>
<path d="M226.62 68.4746C226.62 68.4746 274.54 57.5164 279.822 96.2432" stroke="#1F1304" stroke-width="1.17" stroke-miterlimit="10" stroke-linecap="round"/>
<path d="M226.043 72.043C222.494 72.2765 269.902 69.5256 267.566 105.489" stroke="#1F1304" stroke-width="1.17" stroke-miterlimit="10" stroke-linecap="round"/>
<path d="M224.096 73.3406C224.096 73.3406 262.985 78.6413 260.429 107.779" stroke="#1F1304" stroke-width="1.17" stroke-miterlimit="10" stroke-linecap="round"/>
<path d="M219.062 78.2065C219.062 78.2065 253.136 78.492 253.214 108.369" stroke="#1F1304" stroke-width="1.17" stroke-miterlimit="10" stroke-linecap="round"/>
<path d="M216.959 79.1798C216.959 79.1798 248.965 85.9533 244.968 105.923" stroke="#1F1304" stroke-width="1.17" stroke-miterlimit="10" stroke-linecap="round"/>
<path d="M219.062 82.5795C219.062 82.5795 240.316 88.9117 238.045 102.537" stroke="#1F1304" stroke-width="1.17" stroke-miterlimit="10" stroke-linecap="round"/>
<path d="M203.983 156.714V175.199" stroke="#1F1304" stroke-width="1.17" stroke-miterlimit="10"/>
<path d="M223.123 156.452V175.202" stroke="#1F1304" stroke-width="1.17" stroke-miterlimit="10"/>
<path d="M188.633 49.2571C188.633 49.2571 176.734 -9.05698 212.418 1.97261C248.102 13.0022 246.805 37.0078 242.263 56.4718" stroke="#1F1304" stroke-width="1.17" stroke-miterlimit="10" stroke-linecap="round"/>
<path d="M194.9 48.6862C194.9 48.6862 185.817 -3.21774 212.418 9.10945C239.018 21.4366 240.965 30.5198 237.072 57.1206" stroke="#1F1304" stroke-width="1.17" stroke-miterlimit="10" stroke-linecap="round"/>
<path d="M200.785 50.957C200.785 50.957 199.442 7.81179 215.662 21.4366C231.882 35.0614 233.828 31.1686 232.531 57.7693" stroke="#1F1304" stroke-width="1.17" stroke-miterlimit="10" stroke-linecap="round"/>
<path d="M205.08 52.4168C205.08 52.4168 203.984 21.4366 216.96 33.115C229.936 44.7934 227.34 59.2032 227.34 59.2032" stroke="#1F1304" stroke-width="1.17" stroke-miterlimit="10" stroke-linecap="round"/>
<path d="M210.472 55.0054C210.472 55.0054 211.12 33.1149 216.96 42.8469C222.799 52.5789 224.096 60.1893 224.096 60.1893" stroke="#1F1304" stroke-width="1.17" stroke-miterlimit="10" stroke-linecap="round"/>
<path d="M165.704 48.0374C165.704 48.0374 175.384 40.6736 188.412 47.9206C188.412 47.9206 168.299 24.0319 148.835 33.7638" stroke="#1F1304" stroke-width="1.17" stroke-miterlimit="10" stroke-linecap="round"/>
<path d="M244.572 56.9843C244.572 56.9843 260.429 42.847 285.732 56.4718" stroke="#1F1304" stroke-width="1.17" stroke-miterlimit="10" stroke-linecap="round"/>
<path d="M270.161 33.7638C270.161 33.7638 254.694 35.7102 242.314 57.7694" stroke="#1F1304" stroke-width="1.17" stroke-miterlimit="10" stroke-linecap="round"/>
<path d="M200.74 170.661H228.638L231.233 192.72L269.513 263.439L303.575 227.43L317.524 238.784L262.376 295.879L226.692 222.564L246.805 345.188H174.788L193.603 232.945L168.949 277.712L126.128 233.594L138.455 224.511L160.514 249.814L198.793 189.476L200.74 170.661Z" fill="#1F1304"/>
<path d="M143.321 569.348L109.583 601.788H130.993L126.452 613.466L143.321 638.121H171.868L151.521 622.549L156.297 595.3L143.321 569.348Z" fill="#1F1400"/>
<path d="M232.855 613.466L224.421 642.013L230.26 646.555L238.046 634.877L241.29 649.799L283.462 657.585L253.617 635.525L258.807 619.954L232.855 613.466Z" fill="#1F1400"/>
<path d="M174.463 345.512L168.624 392.874L263.998 407.148L208.85 618.008L271.134 631.632L308.116 407.797L238.694 378.601L249.724 342.917L174.463 345.512Z" fill="#9D3984"/>
<path d="M236.138 353.946L365.859 387.035L154.999 607.627L110.881 558.967L295.789 393.523L206.903 371.464L236.138 353.946Z" fill="#9D3984"/>
<path d="M184.195 353.297L187.439 363.678C187.439 363.678 171.219 398.065 186.142 385.737C201.064 373.41 206.903 380.547 206.903 380.547L226.367 394.821H254.266L272.432 403.904L264.647 428.558" stroke="white" stroke-width="1.17" stroke-miterlimit="10" stroke-linecap="round"/>
<path d="M330.824 392.874C330.824 392.874 321.74 387.684 312.657 415.582C303.574 443.481 301.628 440.885 283.461 442.183C265.295 443.481 254.103 458.079 251.917 476.732C249.73 495.385 219.879 508.361 219.879 508.361C219.879 508.361 185.493 511.605 184.195 533.664C182.897 555.723 147.213 569.348 147.213 569.348" stroke="white" stroke-width="1.17" stroke-miterlimit="10" stroke-linecap="round"/>
<path d="M240.965 369.887L254.915 376.006L258.807 370.166L240.965 369.887Z" fill="white"/>
<path d="M247.777 364.327L260.105 366.922L262.7 364.327H247.777Z" fill="white"/>
<path d="M261.402 377.952L273.73 383.791L275.027 377.952H261.402Z" fill="white"/>
<path d="M270.485 371.464L279.569 374.059L284.11 370.166L270.485 371.464Z" fill="white"/>
<path d="M279.568 382.494L290.598 387.684L293.842 382.494H279.568Z" fill="white"/>
<path d="M203.01 357.19C204.085 357.19 204.957 356.319 204.957 355.244C204.957 354.169 204.085 353.297 203.01 353.297C201.935 353.297 201.064 354.169 201.064 355.244C201.064 356.319 201.935 357.19 203.01 357.19Z" fill="#1F1304"/>
<path d="M216.635 355.244C217.71 355.244 218.581 354.372 218.581 353.297C218.581 352.223 217.71 351.351 216.635 351.351C215.56 351.351 214.688 352.223 214.688 353.297C214.688 354.372 215.56 355.244 216.635 355.244Z" fill="#1F1304"/>
<path d="M231.557 356.541C233.349 356.541 234.801 355.089 234.801 353.297C234.801 351.506 233.349 350.053 231.557 350.053C229.766 350.053 228.313 351.506 228.313 353.297C228.313 355.089 229.766 356.541 231.557 356.541Z" fill="#1F1304"/>
<path d="M210.796 364.976C211.513 364.976 212.094 364.395 212.094 363.678C212.094 362.962 211.513 362.381 210.796 362.381C210.079 362.381 209.499 362.962 209.499 363.678C209.499 364.395 210.079 364.976 210.796 364.976Z" fill="#1F1304"/>
<path d="M223.123 366.922C224.915 366.922 226.367 365.47 226.367 363.678C226.367 361.887 224.915 360.434 223.123 360.434C221.332 360.434 219.879 361.887 219.879 363.678C219.879 365.47 221.332 366.922 223.123 366.922Z" fill="#1F1304"/>
<path d="M275.027 464.242C277.177 464.242 278.92 462.499 278.92 460.349C278.92 458.2 277.177 456.457 275.027 456.457C272.877 456.457 271.134 458.2 271.134 460.349C271.134 462.499 272.877 464.242 275.027 464.242Z" fill="#1F1304"/>
<path d="M228.962 473.325C231.471 473.325 233.504 471.292 233.504 468.784C233.504 466.276 231.471 464.242 228.962 464.242C226.454 464.242 224.421 466.276 224.421 468.784C224.421 471.292 226.454 473.325 228.962 473.325Z" fill="#1F1304"/>
<path d="M160.19 541.449C162.34 541.449 164.082 539.706 164.082 537.556C164.082 535.407 162.34 533.664 160.19 533.664C158.04 533.664 156.297 535.407 156.297 537.556C156.297 539.706 158.04 541.449 160.19 541.449Z" fill="#1F1304"/>
<path d="M201.713 538.854C203.146 538.854 204.308 537.692 204.308 536.259C204.308 534.825 203.146 533.664 201.713 533.664C200.28 533.664 199.118 534.825 199.118 536.259C199.118 537.692 200.28 538.854 201.713 538.854Z" fill="#1F1304"/>
<path d="M207.552 499.926C209.702 499.926 211.445 498.183 211.445 496.033C211.445 493.883 209.702 492.141 207.552 492.141C205.402 492.141 203.659 493.883 203.659 496.033C203.659 498.183 205.402 499.926 207.552 499.926Z" fill="#1F1304"/>
<path d="M258.807 527.824C258.807 527.824 239.343 560.264 258.807 551.83C278.271 543.396 280.866 518.092 266.593 529.122C252.319 540.152 229.611 569.348 249.724 564.157C269.837 558.967 271.783 539.503 252.319 536.259C232.855 533.015 252.319 509.009 265.295 518.741C278.271 528.473 235.45 535.61 252.968 549.884C270.486 564.157 271.134 584.27 251.67 579.728" stroke="#1F1304" stroke-width="1.17" stroke-miterlimit="10" stroke-linecap="round"/>
<path d="M288.327 487.275C288.327 487.275 276 487.275 278.595 503.495" stroke="#1F1304" stroke-width="1.17" stroke-miterlimit="10" stroke-linecap="round"/>
<path d="M275.352 557.345C275.352 557.345 283.137 571.618 270.81 580.702" stroke="#1F1304" stroke-width="1.17" stroke-miterlimit="10" stroke-linecap="round"/>
<path d="M233.18 575.511C233.18 575.511 226.043 586.541 234.477 596.922" stroke="#1F1304" stroke-width="1.17" stroke-miterlimit="10" stroke-linecap="round"/>
<path d="M253.941 589.136C253.941 589.136 257.834 602.761 244.209 607.302" stroke="#1F1304" stroke-width="1.17" stroke-miterlimit="10" stroke-linecap="round"/>
<path d="M266.268 599.517C266.268 599.517 258.482 606.654 263.024 617.035" stroke="#1F1304" stroke-width="1.17" stroke-miterlimit="10" stroke-linecap="round"/>
<path d="M215.986 613.466L222.474 607.627L224.421 617.359L215.986 613.466Z" fill="#1F1304"/>
<path d="M234.153 617.359L241.938 610.222L243.885 619.305L234.153 617.359Z" fill="#1F1304"/>
<path d="M256.212 622.549L265.944 619.305L267.89 625.793L256.212 622.549Z" fill="#1F1304"/>
<path d="M199.767 318.911C199.767 318.911 219.879 339.673 225.719 329.292C231.558 318.911 229.611 307.882 216.635 318.911C203.66 329.941 192.63 331.887 192.63 331.887C192.63 331.887 189.152 320.961 200.889 322.155C202.932 322.387 204.947 322.821 206.904 323.453C225.719 329.292 254.266 326.697 234.802 323.453C215.338 320.209 213.392 308.53 210.796 320.858C208.201 333.185 204.957 331.887 204.957 331.887C204.957 331.887 223.772 344.214 225.719 334.482C227.665 324.75 223.123 319.56 209.499 320.209C195.874 320.858 186.791 337.077 203.011 334.482C219.231 331.887 231.558 329.292 231.558 329.292" stroke="#9D3984" stroke-width="1.17" stroke-miterlimit="10" stroke-linecap="round"/>
<path d="M184.195 318.262L182.249 341.619L187.439 323.453V341.619" stroke="#C991CE" stroke-width="1.17" stroke-miterlimit="10"/>
<path d="M207.228 175.202V197.91L210.472 183.636L211.77 203.1L214.365 180.392L218.258 199.856L218.906 180.392L224.097 199.856L222.799 177.797" stroke="#C991CE" stroke-width="1.17" stroke-miterlimit="10"/>
<path d="M85.7076 433.275L38.4102 456.398L52.9692 486.178L100.267 463.055L85.7076 433.275Z" fill="#9D3984"/>
<path d="M95.3099 518.093C109.643 518.093 121.262 506.473 121.262 492.141C121.262 477.808 109.643 466.189 95.3099 466.189C80.977 466.189 69.3579 477.808 69.3579 492.141C69.3579 506.473 80.977 518.093 95.3099 518.093Z" fill="#1F1304"/>
<path d="M192.305 301.718C193.603 301.718 233.18 303.664 233.18 303.664L190.359 290.04L228.638 280.308L198.144 277.064L224.096 264.088" stroke="#C991CE" stroke-width="1.17" stroke-miterlimit="10" stroke-linecap="round"/>
<path d="M201.388 214.13L199.442 257.6" stroke="#C991CE" stroke-width="1.17" stroke-miterlimit="10"/>
<path d="M211.769 212.832C210.471 213.481 211.769 253.707 211.769 253.707" stroke="#C991CE" stroke-width="1.17" stroke-miterlimit="10" stroke-linecap="round"/>
<path d="M220.203 214.13C220.203 214.13 219.555 251.76 220.203 252.409" stroke="#C991CE" stroke-width="1.17" stroke-miterlimit="10" stroke-linecap="round"/>
<path d="M231.882 221.916L239.019 232.945L235.775 218.023L244.858 229.052L238.37 212.832" stroke="#C991CE" stroke-width="1.17" stroke-miterlimit="10"/>
<path d="M240.965 243.975L250.049 260.195V248.516L261.727 257.6L250.049 238.136" stroke="#C991CE" stroke-width="1.17" stroke-miterlimit="10"/>
<path d="M255.239 267.98L263.024 287.444L277.298 270.576L263.024 277.712L261.727 267.98L268.215 270.576" stroke="#C991CE" stroke-width="1.17" stroke-miterlimit="10"/>
<path d="M276.649 264.088L303.25 235.54L290.274 257.6L310.387 241.38L284.435 267.98" stroke="#C991CE" stroke-width="1.17" stroke-miterlimit="10"/>
<path d="M193.603 203.1L182.573 220.618L192.305 218.023L187.764 226.457L193.603 224.511" stroke="#C991CE" stroke-width="1.17" stroke-miterlimit="10"/>
<path d="M178.68 230.999L172.841 241.38L178.68 239.433L176.085 249.165L185.817 240.082" stroke="#C991CE" stroke-width="1.17" stroke-miterlimit="10"/>
<path d="M172.841 257.6L165.704 269.927L153.377 253.707L163.109 261.492L168.948 251.76" stroke="#C991CE" stroke-width="1.17" stroke-miterlimit="10"/>
<path d="M143.645 246.57L134.315 235.865L140.401 240.082L139.104 232.945L151.431 246.57" stroke="#C991CE" stroke-width="1.17" stroke-miterlimit="10"/>
</svg>
