<svg width="375" height="658" viewBox="0 0 375 658" fill="none" xmlns="http://www.w3.org/2000/svg">
<path d="M69.3383 220.618L66.1138 224.511L71.3042 232.945L60.2746 241.38L54.4354 229.701L42.4326 226.003L69.3383 220.618Z" fill="#9D3984"/>
<path d="M64.8163 158.333L74.5483 204.398L47.2988 210.237L36.2692 158.982L64.8163 158.333Z" stroke="#1F1304" stroke-width="1.17" stroke-miterlimit="10"/>
<path d="M69.6821 144.384L82.0093 210.562L40.4861 218.347L26.2125 146.979L69.6821 144.384Z" stroke="#1F1304" stroke-width="1.17" stroke-miterlimit="10"/>
<path d="M82.0093 210.562L80.7117 218.347L35.2957 227.43L22.3197 158.009L26.2125 146.979" stroke="#1F1304" stroke-width="1.17" stroke-miterlimit="10"/>
<path d="M22.3198 183.961L30.7542 169.687L38.5398 178.77L32.214 176.999L24.915 189.8L33.0899 181.366L41.135 187.205H34.2578L26.2126 199.532L35.2958 192.233L42.4326 194.99L36.269 198.234L26.2126 214.454C26.2126 214.454 8.04625 207.318 22.3198 183.961Z" fill="#9D3984"/>
<path d="M86.8753 202.452L77.8829 188.418L66.1137 186.232L76.4945 194.666L84.2801 212.184C84.2801 212.184 90.7681 216.076 86.8753 202.452Z" fill="#9D3984"/>
<path d="M236.787 228.812L241.283 218.114L238.227 197.631L245.779 213.397L259.339 198.319L250.347 213.734L266.807 203.029L255.206 216.407L271.88 208.933L257.114 221.617L273.366 219.632L252.553 227.249L242.989 238.025L236.787 228.812Z" fill="#9D3984"/>
<path d="M273.944 392.491V350.053H195.225" stroke="#1F1304" stroke-width="1.17" stroke-miterlimit="10"/>
<path d="M20.9054 392.55H353.973C365.196 392.55 374.293 401.648 374.293 412.87V615.205C374.293 626.427 365.196 635.525 353.973 635.525H20.9054C9.68277 635.525 0.585022 626.427 0.585022 615.205V412.87C0.585022 401.648 9.68277 392.55 20.9054 392.55Z" stroke="#1F1304" stroke-width="1.17" stroke-miterlimit="10"/>
<path d="M209.096 101.492C208.85 124.077 201.68 157.36 161.812 157.36C127.756 157.36 118.381 129.611 116.298 107.597" stroke="#1F1304" stroke-width="1.17" stroke-miterlimit="10" stroke-linecap="round"/>
<path d="M164.407 110.971L154.675 124.596H164.407" stroke="#1F1304" stroke-width="1.17" stroke-miterlimit="10"/>
<path d="M185.817 128.488C177.576 128.488 170.895 126.019 170.895 122.974C170.895 119.928 177.576 117.459 185.817 117.459C194.059 117.459 200.74 119.928 200.74 122.974C200.74 126.019 194.059 128.488 185.817 128.488Z" fill="#9D3984"/>
<path d="M136.833 128.813C128.592 128.813 121.911 126.344 121.911 123.298C121.911 120.252 128.592 117.783 136.833 117.783C145.074 117.783 151.755 120.252 151.755 123.298C151.755 126.344 145.074 128.813 136.833 128.813Z" fill="#9D3984"/>
<path d="M200.415 104.159C200.415 104.159 184.844 122.974 170.57 104.159" stroke="#1F1304" stroke-width="1.17" stroke-miterlimit="10" stroke-linecap="round"/>
<path d="M154.351 104.159C154.351 104.159 141.05 125.893 126.777 107.078" stroke="#1F1304" stroke-width="1.17" stroke-miterlimit="10" stroke-linecap="round"/>
<path d="M166.353 134.976C166.353 134.976 159.216 149.25 154.675 134.976" stroke="#1F1304" stroke-width="1.17" stroke-miterlimit="10" stroke-linecap="round"/>
<path d="M146.889 70.0966C146.889 70.0966 192.305 116.161 220.204 96.6973C248.102 77.2334 189.71 18.1926 146.889 70.0966Z" stroke="#1F1304" stroke-width="1.17" stroke-miterlimit="10" stroke-linecap="round"/>
<path d="M150.594 65.9247C150.594 65.9247 191.008 31.8174 227.34 79.8285" stroke="#1F1304" stroke-width="1.17" stroke-miterlimit="10" stroke-linecap="round"/>
<path d="M227.34 88.2629C192.954 37.0077 146.889 70.0965 146.889 70.0965C146.889 70.0965 102.771 65.5549 100.824 101.239" stroke="#1F1304" stroke-width="1.17" stroke-miterlimit="10" stroke-linecap="round"/>
<path d="M149.16 72.2636C149.16 72.2636 182.392 44.469 223.357 93.9465" stroke="#1F1304" stroke-width="1.17" stroke-miterlimit="10" stroke-linecap="round"/>
<path d="M152.573 75.3778C152.573 75.3778 170.908 54.201 213.397 100.104" stroke="#1F1304" stroke-width="1.17" stroke-miterlimit="10" stroke-linecap="round"/>
<path d="M159.216 79.8285C159.216 79.8285 171.544 68.7989 202.738 101.453" stroke="#1F1304" stroke-width="1.17" stroke-miterlimit="10" stroke-linecap="round"/>
<path d="M157.906 80.1141C157.906 80.1141 130.007 126.542 98.865 99.9414C67.7227 73.3406 116.869 45.7732 154.662 61.6622" stroke="#1F1304" stroke-width="1.17" stroke-miterlimit="10" stroke-linecap="round"/>
<path d="M151.755 64.4844C151.755 64.4844 101.337 51.2813 90.0481 88.2629" stroke="#1F1304" stroke-width="1.17" stroke-miterlimit="10" stroke-linecap="round"/>
<path d="M148.258 68.4746C148.258 68.4746 100.338 57.5164 95.0568 96.2432" stroke="#1F1304" stroke-width="1.17" stroke-miterlimit="10" stroke-linecap="round"/>
<path d="M148.836 72.043C152.384 72.2765 104.977 69.5256 107.312 105.489" stroke="#1F1304" stroke-width="1.17" stroke-miterlimit="10" stroke-linecap="round"/>
<path d="M150.782 73.3406C150.782 73.3406 111.893 78.6413 114.449 107.779" stroke="#1F1304" stroke-width="1.17" stroke-miterlimit="10" stroke-linecap="round"/>
<path d="M155.817 78.2065C155.817 78.2065 121.742 78.492 121.664 108.369" stroke="#1F1304" stroke-width="1.17" stroke-miterlimit="10" stroke-linecap="round"/>
<path d="M157.919 79.1798C157.919 79.1798 125.914 85.9533 129.91 105.923" stroke="#1F1304" stroke-width="1.17" stroke-miterlimit="10" stroke-linecap="round"/>
<path d="M155.817 82.5795C155.817 82.5795 134.562 88.9117 136.833 102.537" stroke="#1F1304" stroke-width="1.17" stroke-miterlimit="10" stroke-linecap="round"/>
<path d="M170.895 156.714V175.199" stroke="#1F1304" stroke-width="1.17" stroke-miterlimit="10"/>
<path d="M151.755 156.452V175.202" stroke="#1F1304" stroke-width="1.17" stroke-miterlimit="10"/>
<path d="M186.245 49.2571C186.245 49.2571 198.144 -9.05698 162.46 1.97261C126.776 13.0022 128.074 37.0078 132.615 56.4718" stroke="#1F1304" stroke-width="1.17" stroke-miterlimit="10" stroke-linecap="round"/>
<path d="M179.978 48.6862C179.978 48.6862 189.062 -3.21774 162.461 9.10945C135.86 21.4366 133.914 30.5198 137.806 57.1206" stroke="#1F1304" stroke-width="1.17" stroke-miterlimit="10" stroke-linecap="round"/>
<path d="M174.093 50.957C174.093 50.957 175.437 7.81179 159.217 21.4366C142.997 35.0614 141.05 31.1686 142.348 57.7693" stroke="#1F1304" stroke-width="1.17" stroke-miterlimit="10" stroke-linecap="round"/>
<path d="M169.798 52.4168C169.798 52.4168 170.895 21.4366 157.919 33.115C144.943 44.7934 147.538 59.2032 147.538 59.2032" stroke="#1F1304" stroke-width="1.17" stroke-miterlimit="10" stroke-linecap="round"/>
<path d="M164.407 55.0054C164.407 55.0054 163.758 33.1149 157.919 42.8469C152.08 52.5789 150.782 60.1893 150.782 60.1893" stroke="#1F1304" stroke-width="1.17" stroke-miterlimit="10" stroke-linecap="round"/>
<path d="M209.174 48.0374C209.174 48.0374 199.494 40.6736 186.466 47.9206C186.466 47.9206 206.579 24.0319 226.043 33.7638" stroke="#1F1304" stroke-width="1.17" stroke-miterlimit="10" stroke-linecap="round"/>
<path d="M130.306 56.9843C130.306 56.9843 114.449 42.847 89.1463 56.4718" stroke="#1F1304" stroke-width="1.17" stroke-miterlimit="10" stroke-linecap="round"/>
<path d="M104.718 33.7638C104.718 33.7638 120.185 35.7102 132.564 57.7694" stroke="#1F1304" stroke-width="1.17" stroke-miterlimit="10" stroke-linecap="round"/>
<path d="M174.139 170.661H146.24L143.645 192.72L105.366 263.439L71.3038 227.43L57.3547 238.784L112.503 295.879L148.187 222.564L128.074 345.188H200.091L181.275 232.945L205.93 277.712L248.75 233.594L236.423 224.511L214.364 249.814L176.085 189.476L174.139 170.661Z" fill="#1F1304"/>
<path d="M231.558 569.348L265.295 601.788H243.885L248.427 613.466L231.558 638.121H203.011L223.357 622.549L218.582 595.3L231.558 569.348Z" fill="#1F1400"/>
<path d="M142.023 613.466L150.458 642.013L144.618 646.555L136.833 634.877L133.589 649.799L91.4168 657.585L121.262 635.525L116.071 619.954L142.023 613.466Z" fill="#1F1400"/>
<path d="M200.415 345.512L206.254 392.874L110.881 407.148L166.029 618.008L103.744 631.632L66.7625 407.797L136.184 378.601L125.154 342.917L200.415 345.512Z" fill="#9D3984"/>
<path d="M138.74 353.946L9.01939 387.035L219.879 607.627L263.998 558.967L79.0897 393.523L167.975 371.464L138.74 353.946Z" fill="#9D3984"/>
<path d="M190.683 353.297L187.439 363.678C187.439 363.678 203.659 398.065 188.737 385.737C173.814 373.41 167.975 380.547 167.975 380.547L148.511 394.821H120.613L102.446 403.904L110.232 428.558" stroke="white" stroke-width="1.17" stroke-miterlimit="10" stroke-linecap="round"/>
<path d="M44.0548 392.874C44.0548 392.874 53.138 387.684 62.2212 415.582C71.3044 443.481 73.2508 440.885 91.4172 442.183C109.584 443.481 120.775 458.079 122.962 476.732C125.148 495.385 155 508.361 155 508.361C155 508.361 189.386 511.605 190.683 533.664C191.981 555.723 227.665 569.348 227.665 569.348" stroke="white" stroke-width="1.17" stroke-miterlimit="10" stroke-linecap="round"/>
<path d="M133.913 369.887L119.964 376.006L116.071 370.166L133.913 369.887Z" fill="white"/>
<path d="M127.101 364.327L114.774 366.922L112.179 364.327H127.101Z" fill="white"/>
<path d="M113.476 377.952L101.149 383.791L99.8513 377.952H113.476Z" fill="white"/>
<path d="M104.393 371.464L95.3099 374.059L90.7683 370.166L104.393 371.464Z" fill="white"/>
<path d="M95.3101 382.494L84.2805 387.684L81.0365 382.494H95.3101Z" fill="white"/>
<path d="M171.868 357.19C170.793 357.19 169.922 356.319 169.922 355.244C169.922 354.169 170.793 353.297 171.868 353.297C172.943 353.297 173.814 354.169 173.814 355.244C173.814 356.319 172.943 357.19 171.868 357.19Z" fill="#1F1304"/>
<path d="M158.244 355.244C157.169 355.244 156.297 354.372 156.297 353.297C156.297 352.223 157.169 351.351 158.244 351.351C159.319 351.351 160.19 352.223 160.19 353.297C160.19 354.372 159.319 355.244 158.244 355.244Z" fill="#1F1304"/>
<path d="M143.321 356.541C141.529 356.541 140.077 355.089 140.077 353.297C140.077 351.506 141.529 350.053 143.321 350.053C145.113 350.053 146.565 351.506 146.565 353.297C146.565 355.089 145.113 356.541 143.321 356.541Z" fill="#1F1304"/>
<path d="M164.082 364.976C163.366 364.976 162.785 364.395 162.785 363.678C162.785 362.962 163.366 362.381 164.082 362.381C164.799 362.381 165.38 362.962 165.38 363.678C165.38 364.395 164.799 364.976 164.082 364.976Z" fill="#1F1304"/>
<path d="M151.755 366.922C149.963 366.922 148.511 365.47 148.511 363.678C148.511 361.887 149.963 360.434 151.755 360.434C153.547 360.434 154.999 361.887 154.999 363.678C154.999 365.47 153.547 366.922 151.755 366.922Z" fill="#1F1304"/>
<path d="M99.8513 464.242C97.7014 464.242 95.9585 462.499 95.9585 460.349C95.9585 458.2 97.7014 456.457 99.8513 456.457C102.001 456.457 103.744 458.2 103.744 460.349C103.744 462.499 102.001 464.242 99.8513 464.242Z" fill="#1F1304"/>
<path d="M145.916 473.325C143.408 473.325 141.374 471.292 141.374 468.784C141.374 466.276 143.408 464.242 145.916 464.242C148.424 464.242 150.458 466.276 150.458 468.784C150.458 471.292 148.424 473.325 145.916 473.325Z" fill="#1F1304"/>
<path d="M214.689 541.449C212.539 541.449 210.796 539.706 210.796 537.556C210.796 535.407 212.539 533.664 214.689 533.664C216.839 533.664 218.582 535.407 218.582 537.556C218.582 539.706 216.839 541.449 214.689 541.449Z" fill="#1F1304"/>
<path d="M173.166 538.854C171.732 538.854 170.57 537.692 170.57 536.259C170.57 534.825 171.732 533.664 173.166 533.664C174.599 533.664 175.761 534.825 175.761 536.259C175.761 537.692 174.599 538.854 173.166 538.854Z" fill="#1F1304"/>
<path d="M167.326 499.926C165.177 499.926 163.434 498.183 163.434 496.033C163.434 493.883 165.177 492.141 167.326 492.141C169.476 492.141 171.219 493.883 171.219 496.033C171.219 498.183 169.476 499.926 167.326 499.926Z" fill="#1F1304"/>
<path d="M116.071 527.824C116.071 527.824 135.535 560.264 116.071 551.83C96.6073 543.396 94.0121 518.092 108.286 529.122C122.559 540.152 145.267 569.348 125.154 564.157C105.042 558.967 103.095 539.503 122.559 536.259C142.023 533.015 122.559 509.009 109.583 518.741C96.6073 528.473 139.428 535.61 121.91 549.884C104.393 564.157 103.744 584.27 123.208 579.728" stroke="#1F1304" stroke-width="1.17" stroke-miterlimit="10" stroke-linecap="round"/>
<path d="M86.5511 487.275C86.5511 487.275 98.8783 487.275 96.2831 503.495" stroke="#1F1304" stroke-width="1.17" stroke-miterlimit="10" stroke-linecap="round"/>
<path d="M99.5268 557.345C99.5268 557.345 91.7412 571.618 104.068 580.702" stroke="#1F1304" stroke-width="1.17" stroke-miterlimit="10" stroke-linecap="round"/>
<path d="M141.699 575.511C141.699 575.511 148.836 586.541 140.401 596.922" stroke="#1F1304" stroke-width="1.17" stroke-miterlimit="10" stroke-linecap="round"/>
<path d="M120.937 589.136C120.937 589.136 117.044 602.761 130.669 607.302" stroke="#1F1304" stroke-width="1.17" stroke-miterlimit="10" stroke-linecap="round"/>
<path d="M108.61 599.517C108.61 599.517 116.396 606.654 111.854 617.035" stroke="#1F1304" stroke-width="1.17" stroke-miterlimit="10" stroke-linecap="round"/>
<path d="M158.892 613.466L152.404 607.627L150.458 617.359L158.892 613.466Z" fill="#1F1304"/>
<path d="M140.726 617.359L132.94 610.222L130.994 619.305L140.726 617.359Z" fill="#1F1304"/>
<path d="M118.667 622.549L108.935 619.305L106.988 625.793L118.667 622.549Z" fill="#1F1304"/>
<path d="M175.112 318.911C175.112 318.911 154.999 339.673 149.16 329.292C143.321 318.911 145.267 307.882 158.243 318.911C171.219 329.941 182.248 331.887 182.248 331.887C182.248 331.887 185.726 320.961 173.989 322.155C171.946 322.387 169.932 322.821 167.975 323.453C149.16 329.292 120.613 326.697 140.077 323.453C159.541 320.209 161.487 308.53 164.082 320.858C166.677 333.185 169.921 331.887 169.921 331.887C169.921 331.887 151.106 344.214 149.16 334.482C147.213 324.75 151.755 319.56 165.38 320.209C179.004 320.858 188.088 337.077 171.868 334.482C155.648 331.887 143.321 329.292 143.321 329.292" stroke="#9D3984" stroke-width="1.17" stroke-miterlimit="10" stroke-linecap="round"/>
<path d="M190.683 318.262L192.63 341.619L187.439 323.453V341.619" stroke="#C991CE" stroke-width="1.17" stroke-miterlimit="10"/>
<path d="M167.65 175.202V197.91L164.406 183.636L163.109 203.1L160.514 180.392L156.621 199.856L155.972 180.392L150.782 199.856L152.079 177.797" stroke="#C991CE" stroke-width="1.17" stroke-miterlimit="10"/>
<path d="M289.171 433.275L336.468 456.398L321.909 486.178L274.612 463.055L289.171 433.275Z" fill="#9D3984"/>
<path d="M279.569 518.093C265.236 518.093 253.617 506.473 253.617 492.141C253.617 477.808 265.236 466.189 279.569 466.189C293.901 466.189 305.521 477.808 305.521 492.141C305.521 506.473 293.901 518.093 279.569 518.093Z" fill="#1F1304"/>
<path d="M182.573 301.718C181.276 301.718 141.699 303.664 141.699 303.664L184.52 290.04L146.24 280.308L176.734 277.064L150.782 264.088" stroke="#C991CE" stroke-width="1.17" stroke-miterlimit="10" stroke-linecap="round"/>
<path d="M173.49 214.13L175.437 257.6" stroke="#C991CE" stroke-width="1.17" stroke-miterlimit="10"/>
<path d="M163.109 212.832C164.407 213.481 163.109 253.707 163.109 253.707" stroke="#C991CE" stroke-width="1.17" stroke-miterlimit="10" stroke-linecap="round"/>
<path d="M154.675 214.13C154.675 214.13 155.324 251.76 154.675 252.409" stroke="#C991CE" stroke-width="1.17" stroke-miterlimit="10" stroke-linecap="round"/>
<path d="M142.997 221.916L135.86 232.945L139.104 218.023L130.021 229.052L136.509 212.832" stroke="#C991CE" stroke-width="1.17" stroke-miterlimit="10"/>
<path d="M133.913 243.975L124.83 260.195V248.516L113.152 257.6L124.83 238.136" stroke="#C991CE" stroke-width="1.17" stroke-miterlimit="10"/>
<path d="M119.64 267.98L111.854 287.444L97.5805 270.576L111.854 277.712L113.152 267.98L106.664 270.576" stroke="#C991CE" stroke-width="1.17" stroke-miterlimit="10"/>
<path d="M98.229 264.088L71.6282 235.54L84.6042 257.6L64.4914 241.38L90.4434 267.98" stroke="#C991CE" stroke-width="1.17" stroke-miterlimit="10"/>
<path d="M181.276 203.1L192.305 220.618L182.573 218.023L187.115 226.457L181.276 224.511" stroke="#C991CE" stroke-width="1.17" stroke-miterlimit="10"/>
<path d="M196.198 230.999L202.038 241.38L196.198 239.433L198.794 249.165L189.062 240.082" stroke="#C991CE" stroke-width="1.17" stroke-miterlimit="10"/>
<path d="M202.037 257.6L209.174 269.927L221.501 253.707L211.769 261.492L205.93 251.76" stroke="#C991CE" stroke-width="1.17" stroke-miterlimit="10"/>
<path d="M231.233 246.57L240.563 235.865L234.477 240.082L235.775 232.945L223.448 246.57" stroke="#C991CE" stroke-width="1.17" stroke-miterlimit="10"/>
</svg>
