<svg width="395" height="493" viewBox="0 0 395 493" fill="none" xmlns="http://www.w3.org/2000/svg">
<path d="M352.58 487.313H199.037C199.037 482.557 200.927 477.995 204.29 474.631C207.654 471.268 212.216 469.378 216.972 469.378H272.528V0H279.089V469.378H334.645C339.402 469.378 343.964 471.268 347.327 474.631C350.691 477.995 352.58 482.557 352.58 487.313Z" fill="#1F1304"/>
<path d="M394.138 389.741L150.918 416.447L163.11 19.6851L391.872 39.3963L394.138 389.741Z" fill="#9D3984"/>
<path d="M377.768 366.631L167.288 389.741L177.839 46.3911L375.804 63.4471L377.768 366.631Z" fill="white"/>
<path d="M336.832 12.2485H223.972V33.2459H336.832V12.2485Z" fill="#1F1304"/>
<path d="M323.337 104.234C357.335 133.98 360.778 185.665 331.023 219.663C301.268 253.661 249.593 257.104 215.595 227.349C182.143 198.075 178.272 147.576 206.496 113.574C206.959 113.02 207.43 112.468 207.909 111.92C214.979 103.83 223.575 97.2139 233.205 92.4488C242.835 87.6838 253.309 84.8637 264.03 84.1499C274.75 83.436 285.506 84.8425 295.683 88.2887C305.859 91.7349 315.256 97.1534 323.337 104.234Z" fill="#9D3984"/>
<path d="M289.435 86.4477L271.5 163.486L206.496 113.574C206.959 113.02 207.43 112.468 207.909 111.92C217.832 100.576 230.697 92.1934 245.083 87.6984C259.47 83.2035 274.818 82.7707 289.435 86.4477Z" fill="#1F1304"/>
<path d="M182.978 226.999C183.145 227.336 193.04 233.158 193.04 233.158L205.161 231.233L187.554 220.774C187.554 220.774 178.403 217.755 182.978 226.999Z" fill="#9D3984"/>
<path d="M370.341 84.0818L172.425 244.465L174.708 247.282L372.624 86.8992L370.341 84.0818Z" fill="#1F1304"/>
<path d="M196.413 220.91L201.224 227.471L194.663 223.972H188.101V219.597L196.413 220.91Z" fill="#9D3984"/>
<path d="M189.413 235.345C189.413 234.033 187.226 224.409 188.101 224.846C188.976 225.284 195.538 235.345 195.538 235.345H189.413Z" fill="#9D3984"/>
<path d="M195.538 235.345L192.038 224.846L198.6 234.033L195.538 235.345Z" fill="#9D3984"/>
<path d="M197.725 234.47C197.725 233.595 194.663 222.222 194.663 222.222L202.1 234.47H197.725Z" fill="#9D3984"/>
<path d="M31.9336 485.126L44.6195 457.129L60.5512 459.408L62.1173 478.127L89.2388 488.188L51.1812 493L46.8067 485.126L40.6825 493L31.9336 485.126Z" fill="#1F1400"/>
<path d="M95.8003 482.939L108.486 454.942L124.418 457.221L125.984 475.94L153.106 486.001L115.048 490.813L110.673 482.939L104.549 490.813L95.8003 482.939Z" fill="#1F1400"/>
<path d="M108.924 464.566H125.109C125.109 464.566 157.48 316.71 121.609 258.092L50.7434 253.28C50.7434 253.28 16.1853 453.192 50.7434 464.566H58.18C58.18 464.566 76.9901 440.069 90.5509 285.214C90.5509 285.214 87.4888 438.757 106.736 464.566" fill="#791660"/>
<path d="M65.8353 295.494C70.6672 295.494 74.5842 291.577 74.5842 286.745C74.5842 281.913 70.6672 277.996 65.8353 277.996C61.0034 277.996 57.0864 281.913 57.0864 286.745C57.0864 291.577 61.0034 295.494 65.8353 295.494Z" stroke="#1F1400" stroke-width="3" stroke-miterlimit="10"/>
<path d="M58.8363 335.301C63.6682 335.301 67.5852 331.384 67.5852 326.552C67.5852 321.72 63.6682 317.803 58.8363 317.803C54.0044 317.803 50.0874 321.72 50.0874 326.552C50.0874 331.384 54.0044 335.301 58.8363 335.301Z" stroke="#1F1400" stroke-width="3" stroke-miterlimit="10"/>
<path d="M58.8365 375.108C60.7692 375.108 62.336 373.542 62.336 371.609C62.336 369.676 60.7692 368.109 58.8365 368.109C56.9037 368.109 55.3369 369.676 55.3369 371.609C55.3369 373.542 56.9037 375.108 58.8365 375.108Z" stroke="#1F1400" stroke-width="3" stroke-miterlimit="10"/>
<path d="M105.643 349.3C108.3 349.3 110.455 347.145 110.455 344.488C110.455 341.83 108.3 339.676 105.643 339.676C102.985 339.676 100.831 341.83 100.831 344.488C100.831 347.145 102.985 349.3 105.643 349.3Z" stroke="#1F1400" stroke-width="3" stroke-miterlimit="10"/>
<path d="M125.765 309.929C129.389 309.929 132.327 306.992 132.327 303.368C132.327 299.744 129.389 296.806 125.765 296.806C122.141 296.806 119.204 299.744 119.204 303.368C119.204 306.992 122.141 309.929 125.765 309.929Z" fill="white"/>
<path d="M80.9274 276.465C84.5513 276.465 87.4891 273.527 87.4891 269.903C87.4891 266.28 84.5513 263.342 80.9274 263.342C77.3035 263.342 74.3657 266.28 74.3657 269.903C74.3657 273.527 77.3035 276.465 80.9274 276.465Z" stroke="white" stroke-width="3" stroke-miterlimit="10"/>
<path d="M66.0539 395.012C69.4362 395.012 72.1781 392.27 72.1781 388.888C72.1781 385.506 69.4362 382.764 66.0539 382.764C62.6716 382.764 59.9297 385.506 59.9297 388.888C59.9297 392.27 62.6716 395.012 66.0539 395.012Z" stroke="white" stroke-width="3" stroke-miterlimit="10"/>
<path d="M45.4945 440.506C48.3936 440.506 50.7438 438.156 50.7438 435.257C50.7438 432.358 48.3936 430.008 45.4945 430.008C42.5953 430.008 40.2451 432.358 40.2451 435.257C40.2451 438.156 42.5953 440.506 45.4945 440.506Z" stroke="white" stroke-width="3" stroke-miterlimit="10"/>
<path d="M105.424 270.778L108.049 279.964L98.8623 283.464H110.236V290.463L113.298 280.402L120.297 277.777H111.548L105.424 270.778Z" fill="white"/>
<path d="M78.3026 312.772C78.3026 312.772 73.9281 312.335 76.9903 336.832" stroke="white" stroke-width="3" stroke-miterlimit="10"/>
<path d="M65.1793 344.706C65.1793 344.706 56.8679 342.957 50.7437 360.892" stroke="white" stroke-width="3" stroke-miterlimit="10"/>
<path d="M50.3062 392.388C50.3062 392.388 54.2432 409.448 67.8039 405.948" stroke="white" stroke-width="3" stroke-miterlimit="10"/>
<path d="M100.175 397.2C100.175 397.2 99.7374 388.451 113.736 380.577" stroke="white" stroke-width="3" stroke-miterlimit="10"/>
<path d="M123.359 324.584C123.359 324.584 134.733 338.582 123.359 344.706" stroke="white" stroke-width="3" stroke-miterlimit="10"/>
<path d="M109.799 297.024C109.799 297.024 96.238 302.274 102.362 318.022" stroke="white" stroke-width="3" stroke-miterlimit="10"/>
<path d="M119.422 396.325C121.597 396.325 123.359 394.562 123.359 392.388C123.359 390.213 121.597 388.451 119.422 388.451C117.248 388.451 115.485 390.213 115.485 392.388C115.485 394.562 117.248 396.325 119.422 396.325Z" stroke="white" stroke-width="3" stroke-miterlimit="10"/>
<path d="M124.234 370.078C129.308 370.078 133.421 365.965 133.421 360.891C133.421 355.818 129.308 351.705 124.234 351.705C119.161 351.705 115.048 355.818 115.048 360.891C115.048 365.965 119.161 370.078 124.234 370.078Z" stroke="white" stroke-width="3" stroke-miterlimit="10"/>
<path d="M114.173 448.38C121.421 448.38 127.296 442.505 127.296 435.257C127.296 428.009 121.421 422.134 114.173 422.134C106.925 422.134 101.05 428.009 101.05 435.257C101.05 442.505 106.925 448.38 114.173 448.38Z" stroke="white" stroke-width="3" stroke-miterlimit="10"/>
<path d="M11.3736 49.8687L14.8731 42.8696L26.6841 35.433L15.3106 38.4951L17.0603 24.9343L13.1233 36.3079L11.3736 23.1846L9.62378 34.9956L6.12422 23.1846V36.3079L0 27.1216L5.24933 41.1198L3.937 50.7436L11.3736 49.8687Z" fill="#9D3984"/>
<path d="M77.8652 111.986H101.487L102.362 128.609L139.982 184.164L188.976 218.285L183.289 234.908L134.296 202.099L104.549 167.979L123.797 262.029L48.119 265.091L69.9912 157.043L9.18645 120.735L0.875 45.4941H15.3107L24.497 113.735L75.678 129.921L77.8652 111.986Z" fill="#1F1304"/>
<path d="M103.237 209.098C103.237 209.098 46.3693 224.846 75.6781 232.283C104.987 239.72 60.805 185.476 80.9274 201.662C101.05 217.847 55.1182 254.593 81.8023 246.719C108.486 238.845 114.173 224.409 90.5512 227.909C66.9292 231.408 47.6816 257.655 63.8671 236.22C80.0525 214.785 86.1768 209.973 98.8627 221.347C111.549 232.72 102.362 217.847 94.4882 198.6C86.6142 179.352 59.0552 223.972 83.5521 240.157" stroke="#9D3984" stroke-width="3" stroke-miterlimit="10"/>
<path d="M75.8968 161.636L74.147 176.946" stroke="#9D3984" stroke-width="3" stroke-miterlimit="10"/>
<path d="M84.208 161.636L83.7705 176.946" stroke="#9D3984" stroke-width="3" stroke-miterlimit="10"/>
<path d="M92.5195 165.135V178.259" stroke="#9D3984" stroke-width="3" stroke-miterlimit="10"/>
<path d="M99.0811 165.135L100.831 181.321" stroke="#9D3984" stroke-width="3" stroke-miterlimit="10"/>
<path d="M82.0209 121.391L81.146 135.826" stroke="#9D3984" stroke-width="3" stroke-miterlimit="10"/>
<path d="M87.27 121.391V135.826" stroke="#9D3984" stroke-width="3" stroke-miterlimit="10"/>
<path d="M92.5195 121.391V134.514" stroke="#9D3984" stroke-width="3" stroke-miterlimit="10"/>
<path d="M96.894 121.391L99.0813 132.764" stroke="#9D3984" stroke-width="3" stroke-miterlimit="10"/>
<path d="M77.6465 153.324L81.5835 144.575L85.9579 155.511L92.5196 144.575L96.4566 155.511L99.9562 144.575L102.143 157.699" stroke="#9D3984" stroke-width="3" stroke-miterlimit="10"/>
<path d="M16.4044 120.078C18.0956 120.078 19.4665 118.707 19.4665 117.016C19.4665 115.325 18.0956 113.954 16.4044 113.954C14.7132 113.954 13.3423 115.325 13.3423 117.016C13.3423 118.707 14.7132 120.078 16.4044 120.078Z" stroke="#9D3984" stroke-width="3" stroke-miterlimit="10"/>
<path d="M58.8366 145.888C60.2861 145.888 61.4612 144.712 61.4612 143.263C61.4612 141.813 60.2861 140.638 58.8366 140.638C57.387 140.638 56.2119 141.813 56.2119 143.263C56.2119 144.712 57.387 145.888 58.8366 145.888Z" stroke="#9D3984" stroke-width="3" stroke-miterlimit="10"/>
<path d="M39.151 128.39C40.6006 128.39 41.7757 127.215 41.7757 125.765C41.7757 124.316 40.6006 123.141 39.151 123.141C37.7015 123.141 36.5264 124.316 36.5264 125.765C36.5264 127.215 37.7015 128.39 39.151 128.39Z" stroke="#9D3984" stroke-width="3" stroke-miterlimit="10"/>
<path d="M6.78027 54.4619L9.84239 96.0191" stroke="#9D3984" stroke-width="3" stroke-miterlimit="10"/>
<path d="M13.3423 63.2104L16.4044 96.0188" stroke="#9D3984" stroke-width="3" stroke-miterlimit="10"/>
<path d="M112.642 171.697L136.264 194.006" stroke="#9D3984" stroke-width="3" stroke-miterlimit="10"/>
<path d="M117.891 161.636L136.701 186.57" stroke="#9D3984" stroke-width="3" stroke-miterlimit="10"/>
<path d="M148.075 194.006L150.262 201.443L142.388 199.693L147.638 207.13" stroke="#9D3984" stroke-width="3" stroke-miterlimit="10"/>
<path d="M162.948 204.942H156.387L159.886 212.816" stroke="#9D3984" stroke-width="3" stroke-miterlimit="10"/>
<path d="M172.572 212.816L166.885 216.753L174.759 222.878" stroke="#9D3984" stroke-width="3" stroke-miterlimit="10"/>
<path d="M195.538 295.275L351.268 286.526V296.588L195.538 303.149V295.275Z" fill="#1F1304"/>
<path d="M199.037 330.708L356.08 317.584V326.333L199.037 339.457V330.708Z" fill="#1F1304"/>
<path d="M121.776 65.5684C121.609 80.7958 116.798 103.237 89.8947 103.237C66.9333 103.237 60.6122 84.5272 59.208 69.6847" stroke="#1F1304" stroke-width="3" stroke-miterlimit="10"/>
<path d="M91.6447 71.9595L85.083 81.1458H91.6447" stroke="#1F1304" stroke-width="3" stroke-miterlimit="10"/>
<path d="M106.08 83.7705C111.637 83.7705 116.141 82.1058 116.141 80.0523C116.141 77.9987 111.637 76.334 106.08 76.334C100.524 76.334 96.019 77.9987 96.019 80.0523C96.019 82.1058 100.524 83.7705 106.08 83.7705Z" fill="#9D3984"/>
<path d="M73.0534 83.9893C78.6101 83.9893 83.1146 82.3246 83.1146 80.271C83.1146 78.2175 78.6101 76.5527 73.0534 76.5527C67.4968 76.5527 62.9922 78.2175 62.9922 80.271C62.9922 82.3246 67.4968 83.9893 73.0534 83.9893Z" fill="#9D3984"/>
<path d="M115.923 67.3662C115.923 67.3662 105.424 80.0521 95.8003 67.3662" stroke="#1F1304" stroke-width="3" stroke-miterlimit="10"/>
<path d="M84.8643 67.3662C84.8643 67.3662 75.8967 82.0206 66.2729 69.3347" stroke="#1F1304" stroke-width="3" stroke-miterlimit="10"/>
<path d="M92.957 88.145C92.957 88.145 88.1451 97.7688 85.083 88.145" stroke="#1F1304" stroke-width="3" stroke-miterlimit="10"/>
<path d="M96.019 102.804V115.267" stroke="#1F1304" stroke-width="3" stroke-miterlimit="10"/>
<path d="M83.1143 102.625V115.267" stroke="#1F1304" stroke-width="3" stroke-miterlimit="10"/>
<path d="M127.078 61.4609C127.078 61.4609 164.26 113.954 134.952 118.329C105.643 122.703 98.4688 102.799 98.4688 102.799" stroke="#1F1304" stroke-width="3" stroke-miterlimit="10"/>
<path d="M121.828 66.7103C121.828 66.7103 135.389 64.0856 145.888 107.83" stroke="#1F1304" stroke-width="3" stroke-miterlimit="10"/>
<path d="M121.828 71.9595C121.828 71.9595 133.228 72.2657 144.575 112.795" stroke="#1F1304" stroke-width="3" stroke-miterlimit="10"/>
<path d="M120.564 77.5675C120.564 77.5675 130.826 77.1957 143.167 114.606" stroke="#1F1304" stroke-width="3" stroke-miterlimit="10"/>
<path d="M118.845 83.7705C118.845 83.7705 129.466 84.6454 140.52 116.579" stroke="#1F1304" stroke-width="3" stroke-miterlimit="10"/>
<path d="M116.142 90.3319C116.142 90.3319 124.663 87.9566 137.463 117.799" stroke="#1F1304" stroke-width="3" stroke-miterlimit="10"/>
<path d="M112.511 94.5401C112.511 94.5401 120.529 92.4623 133.206 118.958" stroke="#1F1304" stroke-width="3" stroke-miterlimit="10"/>
<path d="M109.58 97.3311C109.58 97.3311 123.456 105.104 128.329 118.936" stroke="#1F1304" stroke-width="3" stroke-miterlimit="10"/>
<path d="M106.684 99.2124C106.684 99.2124 117.432 105.337 121.382 118.613" stroke="#1F1304" stroke-width="3" stroke-miterlimit="10"/>
<path d="M103.583 100.752C103.583 100.752 111.487 103.718 114.033 117.147" stroke="#1F1304" stroke-width="3" stroke-miterlimit="10"/>
<path d="M100.612 101.811C100.612 101.811 106.102 103.455 107.415 113.517" stroke="#1F1304" stroke-width="3" stroke-miterlimit="10"/>
<path d="M52.3534 45.9316C49.4094 52.8345 49.0638 62.4539 53.5039 67.6507C56.8722 71.5877 62.4015 69.6411 66.2729 67.5895C87.7077 56.2159 93.8319 48.3419 93.8319 48.3419C93.8319 48.3419 120.953 81.1503 128.39 57.9657C135.827 34.7811 100.42 35.2186 100.394 35.2186C99.4618 35.2186 97.1652 33.2326 96.3166 32.7995C92.9375 31.0571 89.325 29.8107 85.5905 29.0987C73.5914 26.8897 63.3858 31.9903 55.4812 40.8266C54.1693 42.3479 53.1129 44.0719 52.3534 45.9316V45.9316Z" stroke="#1F1304" stroke-width="3" stroke-miterlimit="10"/>
<path d="M93.832 48.3377L98.4689 34.2695" stroke="#1F1304" stroke-width="3" stroke-miterlimit="10"/>
<path d="M56.7627 39.4445C56.7627 39.4445 68.9062 30.1094 97.7731 36.3824" stroke="#1F1304" stroke-width="3" stroke-miterlimit="10"/>
<path d="M72.1304 30.0439C72.1304 30.0439 89.5844 30.6126 98.049 35.5383" stroke="#1F1304" stroke-width="3" stroke-miterlimit="10"/>
<path d="M51.8369 47.0254C51.8369 47.0254 70.0477 33.294 97.0293 38.6308" stroke="#1F1304" stroke-width="3" stroke-miterlimit="10"/>
<path d="M50.4199 53.0095C50.4199 53.0095 72.6596 38.2064 96.1504 41.3035" stroke="#1F1304" stroke-width="3" stroke-miterlimit="10"/>
<path d="M50.6255 61.4608C50.6255 61.4608 75.7348 42.1607 95.2842 43.9368" stroke="#1F1304" stroke-width="3" stroke-miterlimit="10"/>
<path d="M53.5869 67.5854C53.5869 67.5854 75.341 48.2154 94.4267 46.5269" stroke="#1F1304" stroke-width="3" stroke-miterlimit="10"/>
<path d="M60.5859 69.3352C60.5859 69.3352 79.3961 48.7753 93.8317 48.3379" stroke="#1F1304" stroke-width="3" stroke-miterlimit="10"/>
<path d="M98.2061 35.6519C98.2061 35.6519 125.192 40.6168 129.418 53.0097" stroke="#1F1304" stroke-width="3" stroke-miterlimit="10"/>
<path d="M97.2046 38.0972C97.7689 38.714 122.808 43.9021 128.661 57.056" stroke="#1F1304" stroke-width="3" stroke-miterlimit="10"/>
<path d="M96.5571 40.0654C96.5571 40.0654 123.425 48.1319 126.124 62.6726" stroke="#1F1304" stroke-width="3" stroke-miterlimit="10"/>
<path d="M95.8003 42.3667C95.8003 42.3667 117.156 49.6764 123.429 65.1926" stroke="#1F1304" stroke-width="3" stroke-miterlimit="10"/>
<path d="M94.9253 45.0566C94.9253 45.0566 113.517 50.9621 120.516 66.7101" stroke="#1F1304" stroke-width="3" stroke-miterlimit="10"/>
<path d="M94.4268 47.0254C94.4268 47.0254 109.142 53.7752 115.923 65.7087" stroke="#1F1304" stroke-width="3" stroke-miterlimit="10"/>
</svg>
